<?xml version="1.0" standalone="no"?><!DOCTYPE svg PUBLIC "-//W3C//DTD SVG 1.1//EN" "http://www.w3.org/Graphics/SVG/1.1/DTD/svg11.dtd"><svg t="1715527393155" class="icon" viewBox="0 0 1024 1024" version="1.1" xmlns="http://www.w3.org/2000/svg" p-id="2353" xmlns:xlink="http://www.w3.org/1999/xlink" width="200" height="200"><path d="M920.159042 1022.356695H102.596216A102.197653 102.197653 0 0 1 0.398563 920.159042V102.596216A102.197653 102.197653 0 0 1 102.596216 0.398563h817.562826a102.197653 102.197653 0 0 1 102.197653 102.197653v817.562826a102.197653 102.197653 0 0 1-102.197653 102.197653z" fill="#5874CF" p-id="2354"></path><path d="M102.596216 945.709988h817.562826a25.550946 25.550946 0 0 0 25.550946-25.550946v-254.111425L811.627305 530.640479a63.586108 63.586108 0 0 0-90.338874 0l-228.689245 230.884407a63.874299 63.874299 0 0 1-91.031761 0l-88.174371-89.008287a63.537054 63.537054 0 0 0-90.332743 0l-146.015042 147.437605v100.204838a25.550946 25.550946 0 0 0 25.550947 25.550946z" fill="#839EF8" p-id="2355"></path><path d="M920.159042 77.045269H102.596216a25.550946 25.550946 0 0 0-25.550947 25.550947v608.059784l91.822755-92.687329a139.521533 139.521533 0 0 1 198.717317 0l79.485701 80.221509 220.006707-222.091497a139.754539 139.754539 0 0 1 198.741844 0l79.890395 80.552622v-454.055089a25.550946 25.550946 0 0 0-25.550946-25.550947z" fill="#839EF8" p-id="2356"></path><path d="M204.787737 281.434443c0 42.333509 34.319329 76.646707 76.646706 76.646707 42.333509 0 76.646707-34.313198 76.646707-76.646707 0-42.327377-34.313198-76.646707-76.646707-76.646706-42.327377 0-76.646707 34.319329-76.646706 76.646706z" fill="#FFFFFF" p-id="2357"></path></svg>